<svg width="562" height="304" viewBox="0 0 562 304" fill="none" xmlns="http://www.w3.org/2000/svg">
<path d="M33.12 135.84C33.696 135.84 54.432 135.552 54.72 135.264C55.008 134.976 55.296 85.152 55.296 81.696C75.744 29.568 86.112 2.78399 86.112 2.20798C86.112 1.34399 84.096 1.05597 75.168 1.05597C68.256 1.05597 65.952 1.05597 65.664 1.34399C65.088 1.91998 46.368 48.576 46.08 48.864C45.792 49.152 33.984 1.63198 33.12 0.767977C32.832 0.47998 31.68 0.47998 29.664 0.47998C26.496 0.47998 0.575974 0.767977 0.287974 1.05597C-2.61962e-05 1.91998 1.43997 4.79997 32.544 81.984C32.544 115.968 32.544 135.552 33.12 135.84Z" fill="#FFC800"/>
<path d="M131.587 95.232C132.163 94.944 131.587 85.728 131.299 75.072C128.995 74.496 129.859 74.496 113.155 74.496C113.155 41.376 113.443 36.192 113.443 36.192C114.019 35.616 144.259 36.192 144.547 34.752C144.547 33.888 143.683 5.66398 143.683 2.49597C143.683 1.05597 143.395 0.47998 142.819 0.47998C137.635 0.47998 92.7067 1.05597 91.8427 1.63198C91.5547 1.91998 89.2507 140.16 89.2507 139.872H90.9787C100.483 139.872 141.379 138.144 141.379 138.144C141.955 137.856 141.667 120.864 141.667 119.136C124.387 119.136 131.011 119.136 113.155 118.848V98.112C113.731 98.112 131.011 95.808 131.587 95.232Z" fill="#FFC800"/>
<path d="M154.253 135.552C154.253 135.552 187.661 136.128 215.885 136.128C215.885 115.392 215.597 115.104 214.733 114.816C213.581 114.24 179.885 113.664 179.597 113.664C179.597 113.376 181.325 20.64 181.613 0.47998C169.805 0.47998 153.389 0.767977 153.389 0.767977C153.101 1.05597 153.965 135.264 154.253 135.552Z" fill="#FFC800"/>
<path d="M270.043 88.032C274.363 101.568 288.187 104.16 302.299 104.16C313.243 104.16 330.811 100.416 330.811 86.592C330.811 25.824 331.099 26.4 330.235 23.808C326.779 13.152 312.955 6.52797 299.131 6.52797C285.883 6.52797 272.635 12.864 269.755 27.84C268.315 33.6 269.179 84.864 270.043 88.032ZM231.739 4.79998C230.875 5.66398 229.723 136.992 230.011 137.568C230.011 137.568 231.451 137.856 234.043 137.856C253.051 137.856 331.387 135.264 331.387 135.264C331.963 134.688 332.827 108.48 332.251 107.904H330.523C319.867 107.904 263.995 111.36 258.523 111.36C258.235 93.792 257.659 7.39198 257.083 6.81598C256.507 6.23997 234.331 4.79998 231.739 4.79998ZM295.099 55.488C295.099 31.584 295.099 30.432 295.675 28.704C297.115 24.672 300.859 23.232 304.603 23.232C309.211 23.232 313.819 25.536 314.683 28.704C314.971 29.568 315.547 79.104 314.395 81.984C313.243 85.728 309.787 87.456 306.043 87.456C302.011 87.456 297.979 85.44 295.963 82.272C294.523 79.968 295.099 84.288 295.099 55.488Z" fill="#FFC800"/>
<path d="M351.598 4.51198H337.774C337.486 4.79998 358.51 132.096 358.798 132.96C359.374 133.824 358.51 133.824 362.542 133.824H384.718C387.598 120.864 399.982 66.72 400.27 66.72C400.558 66.72 409.774 132.672 410.062 133.824C410.35 134.4 410.35 134.4 417.838 134.4C423.598 134.4 425.614 134.4 425.902 134.112C426.19 133.824 457.006 1.91998 456.142 1.05597C455.566 0.767977 453.55 0.47998 445.486 0.47998H436.558C434.83 0.47998 435.406 0.47998 435.118 1.34399C434.83 2.78399 421.87 74.208 421.582 74.496C421.582 74.496 410.638 15.456 410.35 15.168C408.334 15.168 394.51 15.168 393.646 16.032C393.358 16.608 376.942 74.784 376.942 74.784C376.654 74.784 366.286 5.37599 365.71 4.79998C365.422 4.51198 358.51 4.51198 351.598 4.51198Z" fill="#FFC800"/>
<path d="M124.152 160.768C123.864 160.48 94.776 160.48 92.184 160.48C91.608 208.576 91.896 294.112 91.896 294.4C92.184 294.688 123.576 294.688 124.152 294.688C124.44 274.24 124.44 282.016 124.44 260.704C138.264 260.128 143.448 260.128 143.736 260.128C143.736 260.416 143.16 301.024 143.448 301.024C143.736 301.6 144.6 301.6 145.176 301.312C145.464 300.736 165.336 299.008 165.912 298.72C166.2 298.432 168.216 167.104 167.928 165.664C167.928 165.376 167.352 165.088 166.2 165.088C163.32 165.088 144.888 166.24 144.6 166.528C144.024 166.816 144.024 208 143.736 241.12H124.44C124.44 219.52 124.152 161.056 124.152 160.768Z" fill="#FFC800"/>
<path d="M218.305 255.232C218.881 254.944 218.305 245.728 218.017 235.072C215.713 234.496 216.577 234.496 199.873 234.496C199.873 201.376 200.161 196.192 200.161 196.192C200.737 195.616 230.977 196.192 231.265 194.752C231.265 193.888 230.401 165.664 230.401 162.496C230.401 161.056 230.113 160.48 229.537 160.48C224.353 160.48 179.425 161.056 178.561 161.632C178.273 161.92 175.969 300.16 175.969 299.872H177.697C187.201 299.872 228.097 298.144 228.097 298.144C228.673 297.856 228.385 280.864 228.385 279.136C211.105 279.136 217.729 279.136 199.873 278.848V258.112C200.449 258.112 217.729 255.808 218.305 255.232Z" fill="#FFC800"/>
<path d="M288.204 265.312C288.492 265.6 294.828 302.464 294.828 303.04C294.828 303.328 301.452 303.616 308.94 303.616C318.444 303.616 329.1 303.328 329.1 302.464C329.1 301.6 299.724 160.768 299.436 160.48C298.86 160.192 265.452 163.072 265.164 163.648C264.876 163.936 235.212 298.432 235.212 299.872C235.212 300.448 235.5 300.736 235.788 300.736C236.364 300.736 258.54 300.448 258.828 299.872C259.116 299.008 264.3 267.328 264.588 267.04C264.876 266.752 287.916 265.312 288.204 265.312ZM285.036 248.032C284.748 248.032 268.332 246.304 268.332 246.304C268.332 246.016 276.396 199.36 276.396 199.36C276.396 199.36 285.612 248.032 285.036 248.032Z" fill="#FFC800"/>
<path d="M360.267 294.688C360.843 294.112 359.979 265.312 360.843 266.176C361.707 267.04 383.595 296.416 384.459 297.568C384.747 298.144 384.747 298.144 385.899 298.144C387.051 298.144 390.507 297.856 398.859 297.568C414.987 296.704 414.699 297.856 410.091 292.384L379.563 256.096C388.491 248.32 393.963 239.104 395.979 231.328C402.027 208.288 397.707 169.12 370.347 162.208C364.875 160.768 357.099 160.192 350.475 160.192C342.699 160.192 336.075 160.768 335.787 161.056C334.059 161.344 334.347 159.616 334.347 172.288C333.771 201.088 332.619 296.704 332.907 296.992H333.771C338.379 296.992 360.267 294.976 360.267 294.688ZM360.555 178.048C361.131 178.048 364.875 179.488 366.891 180.352C381.291 187.264 380.427 212.608 377.259 228.16C375.243 238.528 370.059 246.304 363.723 249.472C362.283 250.336 361.131 250.624 360.843 250.624C360.267 250.624 360.555 178.048 360.555 178.048Z" fill="#FFC800"/>
<path d="M458.943 194.752C459.519 194.752 489.183 192.16 489.759 191.584C490.335 191.008 490.623 186.688 490.623 174.016C490.623 159.616 490.911 161.344 489.759 160.768C489.183 160.48 459.519 160.192 436.191 160.192C421.215 160.192 408.831 160.48 408.831 160.768C408.831 161.056 407.967 198.496 408.831 198.784C409.407 199.072 433.311 196.768 433.887 196.768C434.175 196.768 433.887 295.84 434.463 296.992C434.751 297.28 434.751 297.568 435.615 297.568C437.055 297.568 440.223 297.28 448.287 296.704C453.759 296.416 458.367 296.128 458.655 296.128C459.231 295.84 458.655 194.752 458.943 194.752Z" fill="#FFC800"/>
<path d="M500.037 273.088C502.917 292.96 514.149 298.72 532.581 298.72C548.997 298.72 556.485 291.808 559.365 269.344C559.941 265.024 559.941 255.232 559.365 252.064C557.061 237.088 537.189 232.48 527.397 226.432C520.197 221.824 519.333 219.52 519.333 207.424C519.621 202.528 520.197 193.312 527.109 193.312C528.837 193.312 530.565 194.176 531.429 195.904C534.885 202.528 532.581 220.096 534.309 221.536C534.885 222.112 538.629 222.112 543.525 222.112C551.301 222.112 561.381 221.824 561.381 221.536C561.669 221.248 561.669 185.248 560.517 180.64C556.485 165.664 546.117 160.48 530.853 160.48C504.069 160.48 496.581 177.184 496.293 201.088C496.293 218.08 496.005 226.72 504.933 235.936C517.029 249.184 535.173 247.744 536.901 261.28C538.053 270.496 533.157 274.528 528.837 274.528C525.669 274.528 522.501 272.512 521.637 269.056C520.773 265.312 521.349 260.128 519.909 259.84C518.757 259.552 509.253 259.552 503.781 259.552H499.749C499.461 260.128 499.461 270.208 500.037 273.088Z" fill="#FFC800"/>
</svg>
